# xmcd
#
# Track frame offsets:
#	150
#	13342
#	28325
#	42025
#	53582
#	65212
#	78640
#	88372
#	100195
#	113610
#	127180
#	138472
#	148512
#	158545
#	175890
#	188935
#	202260
#	218475
#	236515
#	249212
#	264022
#	277827
#	288532
#	300082
#	310835
#	321440
#
# Disc length: 4528 seconds
#
# Revision: 0
# Processed by: cddbd v1.5.2PL0 Copyright (c) Steve Scherf et al.
# Submitted via: EasyCDDAExtractor 10.0.1.1
#
DISCID=7511ae1a
DTITLE=Barbara Ray - Let me be there
DYEAR=1900
DGENRE=
TTITLE0=Let me be there
TTITLE1=Silver threads and goldon needles
TTITLE2=D.I.V.O.R.C.E.
TTITLE3=Funny Face
TTITLE4=I don't wanna play house
TTITLE5=Who's gonna tie my shoes
TTITLE6=Like I do
TTITLE7=I need you
TTITLE8=Johnny Love
TTITLE9=Let the big wheels roll
TTITLE10=Honky tonk angels
TTITLE11=Turn around
TTITLE12=Smokey town
TTITLE13=Bedtime story
TTITLE14=Mary brown
TTITLE15=I can't help it
TTITLE16=Blanket on the ground
TTITLE17=A place in my heart
TTITLE18=Womanhood
TTITLE19=Sweet music man
TTITLE20=To be a child again
TTITLE21=Single girl
TTITLE22=Take these chains from my heart
TTITLE23=Valley of the moon
TTITLE24=Blackboard of my heart
TTITLE25=Bo-jangle island
EXTD=
EXTT0=
EXTT1=
EXTT2=
EXTT3=
EXTT4=
EXTT5=
EXTT6=
EXTT7=
EXTT8=
EXTT9=
EXTT10=
EXTT11=
EXTT12=
EXTT13=
EXTT14=
EXTT15=
EXTT16=
EXTT17=
EXTT18=
EXTT19=
EXTT20=
EXTT21=
EXTT22=
EXTT23=
EXTT24=
EXTT25=
PLAYORDER=
